<?xml version="1.0" standalone="no"?><!DOCTYPE svg PUBLIC "-//W3C//DTD SVG 1.1//EN" "http://www.w3.org/Graphics/SVG/1.1/DTD/svg11.dtd"><svg t="1667810994962" class="icon" viewBox="0 0 1024 1024" version="1.1" xmlns="http://www.w3.org/2000/svg" p-id="2996" xmlns:xlink="http://www.w3.org/1999/xlink" width="200" height="200"><path d="M509.866667 909.824a29.866667 29.866667 0 1 1 0-59.733333 328.106667 328.106667 0 0 0 290.133333-175.616 29.866667 29.866667 0 1 1 52.778667 27.946666 387.84 387.84 0 0 1-342.912 207.402667z m370.176-509.098667a29.866667 29.866667 0 1 1-56.96 17.92c-36.522667-116.053333-134.357333-203.434667-253.525334-225.450666A29.866667 29.866667 0 0 1 580.394667 134.4c141.056 26.069333 256.512 129.237333 299.648 266.24zM282.154667 202.24a29.866667 29.866667 0 1 1 35.2 48.213333A331.52 331.52 0 0 0 181.333333 518.912c0 13.44 0.810667 26.752 2.346667 39.893333a29.866667 29.866667 0 1 1-59.306667 7.082667 397.269333 397.269333 0 0 1-2.773333-46.933333A391.253333 391.253333 0 0 1 282.154667 202.24z m-5.162667 629.461333a29.866667 29.866667 0 0 1 36.010667-47.658666 325.162667 325.162667 0 0 0 196.864 66.005333 29.866667 29.866667 0 0 1 0 59.733333 384.896 384.896 0 0 1-232.874667-78.08z" p-id="2997"></path><path d="M776.533333 548.138667a74.538667 73.984 90 1 0 147.968 0 74.538667 73.984 90 1 0-147.968 0Z" p-id="2998"></path><path d="M354.133333 168.405333a74.538667 73.984 90 1 0 147.968 0 74.538667 73.984 90 1 0-147.968 0Z" p-id="2999"></path><path d="M132.266667 697.472a74.538667 73.984 90 1 0 147.968 0 74.538667 73.984 90 1 0-147.968 0Z" p-id="3000"></path></svg>