<?xml version="1.0" standalone="no"?><!DOCTYPE svg PUBLIC "-//W3C//DTD SVG 1.1//EN" "http://www.w3.org/Graphics/SVG/1.1/DTD/svg11.dtd"><svg t="1667812654369" class="icon" viewBox="0 0 1024 1024" version="1.1" xmlns="http://www.w3.org/2000/svg" p-id="19119" xmlns:xlink="http://www.w3.org/1999/xlink" width="200" height="200"><path d="M298.666667 85.333333a42.666667 42.666667 0 0 1 42.666666 42.666667v85.333333l341.333334-0.042666V128a42.666667 42.666667 0 0 1 42.666666-42.666667h256a42.666667 42.666667 0 0 1 42.666667 42.666667v256a42.666667 42.666667 0 0 1-42.666667 42.666667h-85.333333v170.666666h85.333333a42.666667 42.666667 0 0 1 42.666667 42.666667v256a42.666667 42.666667 0 0 1-42.666667 42.666667h-256a42.666667 42.666667 0 0 1-42.666666-42.666667v-85.333333H341.333333v85.333333a42.666667 42.666667 0 0 1-42.666666 42.666667H42.666667a42.666667 42.666667 0 0 1-42.666667-42.666667v-256a42.666667 42.666667 0 0 1 42.666667-42.666667h85.333333v-170.666666H42.666667a42.666667 42.666667 0 0 1-42.666667-42.666667V128a42.666667 42.666667 0 0 1 42.666667-42.666667h256zM256 682.666667H85.333333v170.666666h170.666667v-170.666666z m682.666667 0h-170.666667v170.666666h170.666667v-170.666666z m-256-298.666667V298.666667H341.333333v85.333333a42.666667 42.666667 0 0 1-42.666666 42.666667H213.333333v170.666666h85.333334a42.666667 42.666667 0 0 1 42.666666 42.666667v85.333333h341.333334v-85.333333a42.666667 42.666667 0 0 1 42.666666-42.666667h85.333334v-170.666666h-85.333334a42.666667 42.666667 0 0 1-42.666666-42.666667zM256 170.666667H85.333333v170.666666h170.666667V170.666667z m682.666667 0h-170.666667v170.666666h170.666667V170.666667z" p-id="19120"></path></svg>