<?xml version="1.0" standalone="no"?><!DOCTYPE svg PUBLIC "-//W3C//DTD SVG 1.1//EN" "http://www.w3.org/Graphics/SVG/1.1/DTD/svg11.dtd"><svg t="1676636725647" class="icon" viewBox="0 0 1024 1024" version="1.1" xmlns="http://www.w3.org/2000/svg" p-id="2473" xmlns:xlink="http://www.w3.org/1999/xlink" width="200" height="200"><path d="M512 85.333333c235.626667 0 426.666667 191.04 426.666667 426.666667s-191.04 426.666667-426.666667 426.666667S85.333333 747.626667 85.333333 512 276.373333 85.333333 512 85.333333z m0 77.568C319.232 162.901333 162.901333 319.232 162.901333 512c0 192.768 156.330667 349.098667 349.098667 349.098667 192.768 0 349.098667-156.330667 349.098667-349.098667 0-192.768-156.330667-349.098667-349.098667-349.098667zM273.728 408.533333L399.274667 512v-100.181333h50.304v202.88h-0.085334c0 2.325333-0.853333 3.2-4.16 0.597333l-125.546666-103.210667v99.648h-50.218667V409.173333c0-1.749333 0.853333-3.2 4.16-0.618666z m451.264 148.48c15.317333 0 29.44 11.776 29.44 28.842667s-14.122667 28.821333-29.44 28.821333c-15.573333 0-29.44-11.776-29.44-28.821333 0-17.066667 13.866667-28.842667 29.44-28.842667z m-143.210667-147.626666c57.578667 0 107.285333 42.090667 107.285334 102.357333s-49.621333 102.613333-107.285334 102.613333-107.264-42.346667-107.264-102.613333c0-60.266667 49.706667-102.336 107.264-102.336z m0 46.506666c-33.493333 0-52.629333 24.426667-52.629333 55.850667 0 31.424 19.114667 56.192 52.629333 56.192 33.493333 0 52.650667-24.682667 52.650667-56.192 0-31.424-19.136-55.850667-52.650667-55.850667z" fill="#999999" p-id="2474"></path></svg>