<?xml version="1.0" standalone="no"?><!DOCTYPE svg PUBLIC "-//W3C//DTD SVG 1.1//EN" "http://www.w3.org/Graphics/SVG/1.1/DTD/svg11.dtd"><svg t="1682312419309" class="icon" viewBox="0 0 1024 1024" version="1.1" xmlns="http://www.w3.org/2000/svg" p-id="4252" xmlns:xlink="http://www.w3.org/1999/xlink" width="200" height="200"><path d="M1005.56381989 624.60632372a112.60632372 112.60632372 0 0 1-112.6063225 112.60632255H716.00470316V351.13382425h160.86617575a96.51970522 96.51970522 0 0 1 96.51970631 96.51970522 95.87624038 95.87624038 0 0 1-35.19752017 73.96626803A112.50980324 112.50980324 0 0 1 1005.56381989 624.60632372z m-112.6063225-166.49649218c0-23.55080779-19.07872896-42.62953676-42.62953681-42.62953676H780.35117368v85.45211216h69.9767869c23.55080779 0 42.62953676-19.07872896 42.62953677-42.62953674v-0.19303866z m32.1732347 150.40987371a64.34647053 64.34647053 0 0 0-64.34647061-64.34647053H780.35117368v128.69294103h96.51970523a48.25985314 48.25985314 0 0 0 48.25985318-48.25985203V608.51970522zM490.79205688 608.51970522h-96.51970525v-128.69293994h96.51970525v-63.60648631L656.6772581 544.17323472 490.79205688 672.12619155V608.51970522z m-214.49895895 0H126.17278223L72.53999898 737.21264627H8.19352855l160.86617688-386.07882202h64.34646939l160.86617681 386.07882202h-64.3464705l-53.63278315-128.69294102zM201.23294008 428.34958798L152.97308691 544.17323472h96.5197064L201.23294008 428.34958798z" fill="#cdcdcd" p-id="4253"></path></svg>