<?xml version="1.0" standalone="no"?><!DOCTYPE svg PUBLIC "-//W3C//DTD SVG 1.1//EN" "http://www.w3.org/Graphics/SVG/1.1/DTD/svg11.dtd"><svg t="1667811444450" class="icon" viewBox="0 0 1024 1024" version="1.1" xmlns="http://www.w3.org/2000/svg" p-id="8930" xmlns:xlink="http://www.w3.org/1999/xlink" width="200" height="200"><path d="M469.333333 42.666667c233.045333 0 426.666667 86.058667 426.666667 213.333333v256a42.666667 42.666667 0 0 1-85.034667 4.992L810.666667 512l0.042666-124.458667C732.458667 438.912 607.829333 469.333333 469.333333 469.333333c-138.496 0-263.082667-30.378667-341.333333-81.749333V426.666667c0 54.784 134.4 118.613333 301.098667 128.085333a42.666667 42.666667 0 1 1-4.864 85.162667c-118.357333-6.698667-225.749333-36.437333-296.234667-82.773334v40.874667l0.213333 3.541333c5.930667 55.168 126.293333 115.925333 300.373334 123.818667a42.666667 42.666667 0 0 1-3.84 85.248c-122.666667-5.546667-227.925333-34.858667-296.704-80.341333L128 768.512c0 55.594667 128.725333 118.528 302.848 126.592 12.714667 0.597333 25.557333 0.896 38.485333 0.896a42.666667 42.666667 0 1 1 0 85.333333c-14.250667 0-28.416-0.341333-42.453333-0.981333-210.389333-9.770667-377.258667-89.472-384-204.586667L42.666667 768.512V256l0.213333-7.168C50.005333 125.525333 240.64 42.666667 469.333333 42.666667z m0 85.333333C278.186667 128 128 194.773333 128 256s150.186667 128 341.333333 128 341.333333-66.773333 341.333334-128-150.186667-128-341.333334-128z" p-id="8931"></path><path d="M917.333333 597.333333a64 64 0 0 1 64 64v170.666667a64 64 0 0 1-64 64H810.666667v42.666667h85.333333a42.666667 42.666667 0 1 1 0 85.333333h-256a42.666667 42.666667 0 1 1 0-85.333333h85.333333v-42.666667h-106.666666a64 64 0 0 1-63.701334-57.856L554.666667 832v-170.666667a64 64 0 0 1 64-64z m-21.333333 85.333334h-256v128h256v-128z" p-id="8932"></path></svg>