<?xml version="1.0" standalone="no"?><!DOCTYPE svg PUBLIC "-//W3C//DTD SVG 1.1//EN" "http://www.w3.org/Graphics/SVG/1.1/DTD/svg11.dtd"><svg t="1667811488434" class="icon" viewBox="0 0 1024 1024" version="1.1" xmlns="http://www.w3.org/2000/svg" p-id="9227" xmlns:xlink="http://www.w3.org/1999/xlink" width="200" height="200"><path d="M139.884 420.157a33.142 33.142 0 0 1-10.635-1.756 34.642 34.642 0 0 1-21.432-43.576C164.71 199.629 324.495 81.92 505.421 81.92c179.968 0 339.481 116.895 396.938 290.877a34.657 34.657 0 0 1-21.217 43.69 33.613 33.613 0 0 1-42.793-21.663c-48.185-145.92-181.98-243.948-332.928-243.948-151.752 0-285.773 98.719-333.486 245.642a33.859 33.859 0 0 1-32.051 23.64zM505.42 936.96c-185.61 0-346.624-121.667-400.67-302.756a34.606 34.606 0 0 1 22.46-43.008 33.674 33.674 0 0 1 42.148 22.938c45.328 151.859 180.378 253.89 336.062 253.89 155.008 0 293.652-105.938 337.147-257.623a33.684 33.684 0 0 1 41.907-23.408 34.601 34.601 0 0 1 22.922 42.767c-51.845 180.874-217.17 307.2-401.976 307.2z m-44.826-250.568a33.556 33.556 0 0 1-31.744-22.738l-67.584-190.52-48.046 57.969a33.48 33.48 0 0 1-25.784 12.21H59.392a34.483 34.483 0 0 1 0-68.955h212.357l75.612-91.223a33.413 33.413 0 0 1 31.744-11.669 33.976 33.976 0 0 1 25.795 22.2l64.799 182.677 60.6-91.924a33.485 33.485 0 0 1 31.744-15.023 33.905 33.905 0 0 1 27.75 21.766l16.19 42.465 34.17-51.118a33.587 33.587 0 0 1 27.9-15.043h286.315a34.483 34.483 0 0 1 0 68.956H685.875l-60.242 90.112a33.475 33.475 0 0 1-59.392-6.927l-16.005-41.984-61.63 93.537a33.577 33.577 0 0 1-28.01 15.232z" p-id="9228"></path></svg>