<?xml version="1.0" standalone="no"?><!DOCTYPE svg PUBLIC "-//W3C//DTD SVG 1.1//EN" "http://www.w3.org/Graphics/SVG/1.1/DTD/svg11.dtd"><svg t="1677069073291" class="icon" viewBox="0 0 1024 1024" version="1.1" xmlns="http://www.w3.org/2000/svg" p-id="2203" xmlns:xlink="http://www.w3.org/1999/xlink" width="200" height="200"><path d="M521.142857 836.571429c-174.208 0-315.428571-141.220571-315.428571-315.428572 0-174.208 141.220571-315.428571 315.428571-315.428571 174.208 0 315.428571 141.220571 315.428572 315.428571 0 174.208-141.220571 315.428571-315.428572 315.428572z m0-27.428572c159.049143 0 288-128.950857 288-288S680.192 233.142857 521.142857 233.142857 233.142857 362.093714 233.142857 521.142857s128.950857 288 288 288zM324.333714 174.464a9.142857 9.142857 0 1 1 7.259429 16.786286c-23.478857 10.166857-43.812571 21.961143-61.037714 35.382857a207.305143 207.305143 0 0 0-43.593143 46.025143 9.142857 9.142857 0 1 1-15.067429-10.386286 225.590857 225.590857 0 0 1 47.414857-50.048c18.505143-14.427429 40.173714-27.008 65.024-37.76z m393.398857 0.475429a486.034286 486.034286 0 0 1 55.296 37.284571c17.408 13.549714 35.748571 29.805714 55.04 48.713143a9.142857 9.142857 0 0 1-12.8 13.056 636.745143 636.745143 0 0 0-53.485714-47.36 467.748571 467.748571 0 0 0-53.211428-35.858286 9.142857 9.142857 0 1 1 9.142857-15.835428z m-29.842285 365.494857c4.864 0 8.777143 3.858286 8.777143 8.630857a8.722286 8.722286 0 0 1-8.777143 8.649143h-165.266286a8.722286 8.722286 0 0 1-8.795429-8.649143V328.649143c0-4.772571 3.931429-8.649143 8.777143-8.649143 4.864 0 8.795429 3.876571 8.795429 8.649143v211.785143h156.489143z" fill="#979797" p-id="2204"></path></svg>