<?xml version="1.0" standalone="no"?><!DOCTYPE svg PUBLIC "-//W3C//DTD SVG 1.1//EN" "http://www.w3.org/Graphics/SVG/1.1/DTD/svg11.dtd"><svg t="1669716215095" class="icon" viewBox="0 0 1505 1024" version="1.1" xmlns="http://www.w3.org/2000/svg" p-id="3635" xmlns:xlink="http://www.w3.org/1999/xlink" width="293.9453125" height="200"><path d="M120.470588 120.470588v783.058824h1264.941177V120.470588H120.470588zM60.235294 0h1385.411765c33.129412 0 60.235294 27.105882 60.235294 60.235294v903.529412c0 33.129412-27.105882 60.235294-60.235294 60.235294H60.235294c-33.129412 0-60.235294-27.105882-60.235294-60.235294V60.235294C0 27.105882 27.105882 0 60.235294 0z m331.294118 331.294118h120.470588c33.129412 0 60.235294 27.105882 60.235294 60.235294s-27.105882 60.235294-60.235294 60.235294h-120.470588c-33.129412 0-60.235294-27.105882-60.235294-60.235294s27.105882-60.235294 60.235294-60.235294z m0 240.941176h120.470588c33.129412 0 60.235294 27.105882 60.235294 60.235294s-27.105882 60.235294-60.235294 60.235294h-120.470588c-33.129412 0-60.235294-27.105882-60.235294-60.235294s27.105882-60.235294 60.235294-60.235294z m331.294117-240.941176h120.470589c33.129412 0 60.235294 27.105882 60.235294 60.235294s-27.105882 60.235294-60.235294 60.235294h-120.470589c-33.129412 0-60.235294-27.105882-60.235294-60.235294s27.105882-60.235294 60.235294-60.235294z m0 240.941176h120.470589c33.129412 0 60.235294 27.105882 60.235294 60.235294s-27.105882 60.235294-60.235294 60.235294h-120.470589c-33.129412 0-60.235294-27.105882-60.235294-60.235294s27.105882-60.235294 60.235294-60.235294z m376.470589-90.352941c-42.164706 0-75.294118-33.129412-75.294118-75.294118s33.129412-75.294118 75.294118-75.294117 75.294118 33.129412 75.294117 75.294117-33.129412 75.294118-75.294117 75.294118z m0 210.823529c-42.164706 0-75.294118-33.129412-75.294118-75.294117s33.129412-75.294118 75.294118-75.294118 75.294118 33.129412 75.294117 75.294118-33.129412 75.294118-75.294117 75.294117z" p-id="3636"></path></svg>