<?xml version="1.0" standalone="no"?><!DOCTYPE svg PUBLIC "-//W3C//DTD SVG 1.1//EN" "http://www.w3.org/Graphics/SVG/1.1/DTD/svg11.dtd"><svg t="1667811886808" class="icon" viewBox="0 0 1024 1024" version="1.1" xmlns="http://www.w3.org/2000/svg" p-id="15069" xmlns:xlink="http://www.w3.org/1999/xlink" width="200" height="200"><path d="M408.5 201.9c0-57.3 46.5-103.8 103.8-103.8S616 144.6 616 201.9h207.5c28.7 0 51.9 23.2 51.9 51.9v622.6c0 28.7-23.2 51.9-51.9 51.9H201c-28.7 0-51.9-23.2-51.9-51.9V253.8c0-28.7 23.2-51.9 51.9-51.9h207.5zM226.2 280v570.7h570.7V280H226.2z m285.7-52c14.3 0 25.9-11.6 25.9-25.9 0-14.3-11.6-25.9-25.9-25.9-14.3 0-25.9 11.6-25.9 25.9-0.1 14.3 11.5 25.9 25.9 25.9zM356.6 357.5h311.3c28.7 0 51.9 23.2 51.9 51.9s-23.2 51.9-51.9 51.9H356.6c-28.7 0-51.9-23.2-51.9-51.9s23.3-51.9 51.9-51.9z m0 155.7h207.5c28.7 0 51.9 23.2 51.9 51.9S592.8 617 564.1 617H356.6c-28.7 0-51.9-23.2-51.9-51.9s23.3-51.9 51.9-51.9z m0 155.6h103.8c28.7 0 51.9 23.2 51.9 51.9s-23.2 51.9-51.9 51.9H356.6c-28.7 0-51.9-23.2-51.9-51.9s23.3-51.9 51.9-51.9z" p-id="15070"></path></svg>