<?xml version="1.0" standalone="no"?><!DOCTYPE svg PUBLIC "-//W3C//DTD SVG 1.1//EN" "http://www.w3.org/Graphics/SVG/1.1/DTD/svg11.dtd"><svg t="1667811825738" class="icon" viewBox="0 0 1024 1024" version="1.1" xmlns="http://www.w3.org/2000/svg" p-id="13989" xmlns:xlink="http://www.w3.org/1999/xlink" width="200" height="200"><path d="M195.705 752.459h50v174.76h-50zM195.705 97.152h50v448.811h-50zM486.767 613.46h50v313.759h-50zM486.767 97.152h50v295.819h-50zM779.841 463.326h50v463.893h-50zM779.841 97.152h50v165.326h-50z" p-id="13990"></path><path d="M220.061 777.459c-66.304 0-120.246-53.941-120.246-120.245s53.942-120.245 120.246-120.245c66.303 0 120.245 53.941 120.245 120.245s-53.942 120.245-120.245 120.245z m0-190.49c-38.733 0-70.246 31.512-70.246 70.245s31.512 70.245 70.246 70.245 70.245-31.512 70.245-70.245-31.512-70.245-70.245-70.245zM517.283 628.163c-2.896 0-5.83-0.104-8.719-0.312l-0.007-0.001c-30.262-2.177-58.368-15.616-79.141-37.844-20.879-22.342-32.378-51.495-32.378-82.089 0-66.303 53.941-120.245 120.245-120.245s120.246 53.942 120.246 120.245c0 66.305-53.942 120.246-120.246 120.246z m-5.145-50.184c1.705 0.123 3.437 0.185 5.146 0.185 38.733 0 70.246-31.512 70.246-70.245s-31.513-70.245-70.246-70.245c-38.733 0-70.245 31.512-70.245 70.245 0 36.657 28.594 67.431 65.099 70.06zM804.174 488.326c-66.304 0-120.245-53.942-120.245-120.245s53.941-120.245 120.245-120.245 120.245 53.942 120.245 120.245-53.941 120.245-120.245 120.245z m0-190.491c-38.733 0-70.245 31.512-70.245 70.245s31.512 70.245 70.245 70.245 70.245-31.512 70.245-70.245-31.512-70.245-70.245-70.245z" p-id="13991"></path></svg>