<?xml version="1.0" standalone="no"?><!DOCTYPE svg PUBLIC "-//W3C//DTD SVG 1.1//EN" "http://www.w3.org/Graphics/SVG/1.1/DTD/svg11.dtd"><svg t="1667811913814" class="icon" viewBox="0 0 1024 1024" version="1.1" xmlns="http://www.w3.org/2000/svg" p-id="15266" xmlns:xlink="http://www.w3.org/1999/xlink" width="200" height="200"><path d="M432.808 893.463H240.965c-48.61 0-88.157-39.548-88.157-88.158V229.62c0-48.61 39.547-88.157 88.157-88.157H721.65c48.61 0 88.157 39.547 88.157 88.157v227.843c0 13.255-10.745 24-24 24s-24-10.745-24-24V229.62c0-22.143-18.015-40.157-40.157-40.157H240.965c-22.143 0-40.157 18.015-40.157 40.157v575.685c0 22.144 18.015 40.158 40.157 40.158h191.843c13.255 0 24 10.745 24 24s-10.746 24-24 24z" p-id="15267"></path><path d="M304.808 301.462h368.71v48h-368.71zM304.808 493.463h246.768v48H304.808z" p-id="15268"></path><path d="M715.5 904.812c-97.598 0-177-79.402-177-177s79.402-177 177-177 177 79.402 177 177-79.402 177-177 177z m0-310c-73.337 0-133 59.663-133 133s59.663 133 133 133 133-59.663 133-133-59.663-133-133-133z" p-id="15269"></path><path d="M687.5 789.812c-11.046 0-20-8.954-20-20v-97c0-11.046 8.954-20 20-20s20 8.954 20 20v97c0 11.045-8.954 20-20 20z" p-id="15270"></path><path d="M764.5 789.812h-77c-11.046 0-20-8.954-20-20s8.954-20 20-20h77c11.046 0 20 8.954 20 20s-8.954 20-20 20z" p-id="15271"></path></svg>